#tb 0: 1/96000
#media_type 0: audio
#codec_id 0: pcm_s24daud
#sample_rate 0: 96000
#channel_layout_name 0: 5.1(side)
0,          0,          0,     2000,    36000, 0xd592781d
0,       2000,       2000,     2000,    36000, 0xd592781d
0,       4000,       4000,     2000,    36000, 0xd592781d
0,       6000,       6000,     1280,    23056, 0xde81f0d6, F=0x3
